<svg width="109" height="38" viewBox="0 0 109 38" fill="none" xmlns="http://www.w3.org/2000/svg">
<path d="M75.6136 7.79224C75.5105 8.71954 75.2527 9.59534 74.8917 10.4196C74.2213 11.9136 73.3446 13.2531 72.3648 14.541C70.663 16.7047 70.663 19.9503 72.3648 22.1655C74.5307 25.0505 78.5015 25.6172 81.3893 23.4534C84.1225 21.4443 84.7413 17.3229 82.6786 14.5925C81.4925 13.047 80.5642 11.45 79.9454 9.59534C79.7391 9.02865 79.636 8.46196 79.4813 7.84375C83.1427 8.35892 87.6807 11.7591 88.1964 17.3744C88.7121 23.2474 84.3803 28.3991 78.5531 28.9658C72.6742 29.5325 67.4657 25.2565 66.8469 19.3836C66.2281 13.4591 70.4567 8.61651 75.6136 7.79224Z" fill="#111111"/>
<path d="M80.0485 20.8259C78.7077 22.1654 76.6449 22.2684 75.201 21.0835C73.7571 19.8986 73.4477 17.7864 74.5306 16.2924C76.2324 13.8711 77.0059 11.1922 77.2122 8.30726C77.2638 7.12236 77.1606 5.98899 76.6965 4.90713C76.5418 4.59802 76.3871 4.34044 76.2324 4.08285C75.7167 3.36161 75.7683 2.43431 76.3871 1.8161C77.0059 1.19789 77.9342 1.14638 78.6561 1.71307C79.3265 2.22824 79.4812 3.25858 78.9655 3.97982C78.2436 4.95864 77.9342 6.0405 77.8826 7.17388C77.7279 10.2649 78.5014 13.0984 80.1 15.7257C80.2548 16.0348 80.5126 16.2924 80.6673 16.55C81.4408 17.941 81.183 19.6925 80.0485 20.8259Z" fill="#111111"/>
<path d="M16.6193 19.6918V24.5859C16.6193 27.0072 14.6597 28.9649 12.236 28.9649H10.5342V19.6403L0.323547 2.69116H4.29435C5.84142 2.69116 7.28534 3.51544 8.05888 4.80336L13.8346 14.334L19.5587 4.85488C20.3323 3.51544 21.7762 2.74268 23.3233 2.74268H26.8299L16.6193 19.6918Z" fill="#111111"/>
<path d="M42.713 20.2595H27.3971C27.9643 22.7838 30.1302 24.3293 33.1728 24.3293C34.2041 24.3293 35.1324 24.1748 35.9059 23.8657C37.5561 23.2475 39.4642 23.7111 40.6502 24.9991L41.3206 25.7203C39.4642 27.884 36.6279 28.9659 32.9665 28.9659C25.9531 28.9659 21.4151 24.5869 21.4151 18.5594C21.4151 12.5319 26.0563 8.15295 32.193 8.15295C38.1234 8.15295 42.713 12.1198 42.713 18.6624C42.8161 19.1261 42.7646 19.7958 42.713 20.2595ZM27.3455 16.8593H37.2983C36.8857 14.2835 34.9777 12.6349 32.3477 12.6349C29.6661 12.6349 27.758 14.232 27.3455 16.8593Z" fill="#111111"/>
<path d="M66.1253 18.6101C66.1253 24.9467 61.742 29.0165 56.0694 29.0165C53.3362 29.0165 51.1703 28.1407 49.7264 26.3892C49.7264 27.6771 48.695 28.7074 47.4058 28.7074H44.157V0.83667H45.6009C48.0246 0.83667 49.9843 2.79432 49.9843 5.21562V10.6249C51.4798 8.97637 53.5425 8.20362 56.0694 8.20362C61.6904 8.20362 66.1253 12.2735 66.1253 18.6101ZM60.1949 18.6101C60.1949 15.1069 57.9774 12.9947 55.038 12.9947C52.0986 12.9947 49.8811 15.1069 49.8811 18.6101C49.8811 22.1132 52.0986 24.2254 55.038 24.2254C57.9259 24.2254 60.1949 22.1132 60.1949 18.6101Z" fill="#111111"/>
<path d="M100.264 27.162L97.1183 22.783L93.8694 27.2135C93.0443 28.3469 91.7035 29.0166 90.3112 29.0166H86.1341L93.921 18.8162L86.4435 8.8219H90.7753C92.1677 8.8219 93.5085 9.49162 94.3336 10.625L97.3246 14.6949L100.419 10.5735C101.244 9.4401 102.585 8.8219 103.925 8.8219H107.948L100.419 18.7132L108.257 29.0681H103.874C102.43 29.0166 101.089 28.3469 100.264 27.162Z" fill="#111111"/>
<path d="M30.6451 34.9439H29.7684V34.6863H31.8312V34.9439H30.9545V37.2621H30.6967V34.9439H30.6451Z" fill="#111111"/>
<path d="M35.8539 37.0045V37.2621H34.049V34.6863H35.8023V34.9439H34.3068V35.8712H35.6476V36.0772H34.3068V37.0045H35.8539Z" fill="#111111"/>
<path d="M37.9158 35.9742C37.9158 35.2015 38.483 34.6863 39.2565 34.6863C39.6175 34.6863 39.9785 34.7893 40.1848 35.0469L40.0301 35.2015C39.8238 34.9954 39.566 34.8923 39.2565 34.8923C38.6377 34.8923 38.1736 35.356 38.1736 35.9742C38.1736 36.5924 38.6377 37.0561 39.2565 37.0561C39.566 37.0561 39.8238 36.953 40.0301 36.747L40.1848 36.9015C39.9785 37.1591 39.6175 37.2621 39.2565 37.2621C38.483 37.2621 37.9158 36.6954 37.9158 35.9742Z" fill="#111111"/>
<path d="M44.6718 34.6863V37.2621H44.4139V36.0772H42.8153V37.2621H42.5574V34.6863H42.8153V35.8197H44.4139V34.6863H44.6718Z" fill="#111111"/>
<path d="M49.3652 34.6863V37.2621H49.1589L47.5087 35.2015V37.2621H47.2508V34.6863H47.4571L49.1073 36.747V34.6863H49.3652Z" fill="#111111"/>
<path d="M51.7364 35.9742C51.7364 35.253 52.3036 34.6863 53.0772 34.6863C53.8507 34.6863 54.418 35.253 54.418 35.9742C54.418 36.747 53.8507 37.2621 53.0772 37.2621C52.3036 37.2621 51.7364 36.6954 51.7364 35.9742ZM54.1601 35.9742C54.1601 35.356 53.696 34.8923 53.0772 34.8923C52.4583 34.8923 51.9942 35.356 51.9942 35.9742C51.9942 36.5924 52.4583 37.0561 53.0772 37.0561C53.696 37.0046 54.1601 36.5924 54.1601 35.9742Z" fill="#111111"/>
<path d="M56.8416 34.6863H57.0995V37.0045H58.5434V37.2621H56.8416V34.6863Z" fill="#111111"/>
<path d="M60.401 35.9742C60.401 35.253 60.9682 34.6863 61.7418 34.6863C62.5153 34.6863 63.0825 35.253 63.0825 35.9742C63.0825 36.747 62.5153 37.2621 61.7418 37.2621C60.9682 37.2621 60.401 36.6954 60.401 35.9742ZM62.8247 35.9742C62.8247 35.356 62.3606 34.8923 61.7418 34.8923C61.1229 34.8923 60.6588 35.356 60.6588 35.9742C60.6588 36.5924 61.1229 37.0561 61.7418 37.0561C62.3606 37.0046 62.8247 36.5924 62.8247 35.9742Z" fill="#111111"/>
<path d="M67.3115 35.9742H67.5693V36.953C67.3115 37.1591 67.0021 37.2621 66.6411 37.2621C65.8676 37.2621 65.3003 36.6954 65.3003 35.9742C65.3003 35.2015 65.8676 34.6863 66.6411 34.6863C67.0536 34.6863 67.3631 34.7893 67.5693 35.0469L67.4146 35.2015C67.2084 34.9954 66.9505 34.8923 66.6411 34.8923C66.0223 34.8923 65.5581 35.356 65.5581 35.9742C65.5581 36.5924 66.0223 37.0561 66.6411 37.0561C66.8989 37.0561 67.1052 37.0046 67.3115 36.85V35.9742Z" fill="#111111"/>
<path d="M70.0952 34.6863H70.3532V37.2621H70.0952V34.6863Z" fill="#111111"/>
<path d="M74.7363 37.0045V37.2621H72.9314V34.6863H74.6847V34.9439H73.1892V35.8712H74.53V36.0772H73.1892V37.0045H74.7363Z" fill="#111111"/>
<path d="M76.9533 36.9518L77.0564 36.7457C77.2627 36.9003 77.5721 37.0549 77.8815 37.0549C78.3457 37.0549 78.5519 36.8488 78.5519 36.5912C78.5519 35.87 76.9533 36.3336 76.9533 35.3548C76.9533 34.9942 77.2627 34.6335 77.8815 34.6335C78.1909 34.6335 78.4488 34.7366 78.6551 34.8396L78.5519 35.0457C78.3457 34.8911 78.0878 34.8396 77.83 34.8396C77.3658 34.8396 77.1596 35.0457 77.1596 35.3033C77.1596 36.0245 78.7582 35.5609 78.7582 36.4882C78.7582 36.8488 78.4488 37.2094 77.7784 37.2094C77.5206 37.2609 77.108 37.1064 76.9533 36.9518Z" fill="#111111"/>
</svg>
